<?xml version="1.0" standalone="no"?>
<!DOCTYPE svg PUBLIC "-//W3C//DTD SVG 20010904//EN"
 "http://www.w3.org/TR/2001/REC-SVG-20010904/DTD/svg10.dtd">
<svg version="1.0" xmlns="http://www.w3.org/2000/svg"
 width="750.000000pt" height="750.000000pt" viewBox="0 0 750.000000 750.000000"
 preserveAspectRatio="xMidYMid meet">
<metadata>
Created by potrace 1.11, written by Peter Selinger 2001-2013
</metadata>
<g transform="translate(0.000000,750.000000) scale(0.100000,-0.100000)"
fill="#000000" stroke="none">
<path d="M1740 5862 c-10 -4 -168 -164 -486 -491 -87 -90 -204 -210 -259 -266
-153 -157 -532 -549 -634 -655 -50 -52 -91 -99 -91 -105 0 -19 170 -199 1045
-1100 33 -34 155 -160 270 -280 116 -119 250 -259 298 -309 48 -50 170 -176
270 -280 100 -104 207 -215 237 -246 30 -31 147 -153 260 -270 l205 -212 119
123 c65 68 204 214 310 323 105 110 246 256 313 325 66 69 144 151 173 181 28
30 141 147 250 260 108 113 226 235 261 271 35 37 148 154 251 260 230 240
436 455 653 684 22 24 65 69 96 101 30 33 72 78 93 102 l39 42 -54 63 c-29 34
-56 64 -59 67 -3 3 -30 32 -60 65 -62 68 -266 289 -320 346 -19 20 -73 79
-120 130 -47 51 -98 107 -113 123 -42 44 -111 127 -120 142 -9 16 -20 16 534
18 l347 1 103 -106 c153 -157 571 -587 698 -719 61 -63 111 -119 111 -124 0
-5 -60 -70 -134 -145 -74 -75 -163 -166 -197 -202 -35 -36 -211 -216 -390
-400 -180 -184 -366 -374 -414 -424 -48 -49 -244 -250 -435 -445 -191 -195
-373 -382 -405 -415 -31 -33 -75 -79 -98 -103 l-41 -42 99 -96 c280 -269 328
-314 337 -314 9 0 165 156 407 406 79 82 308 317 510 523 201 206 395 404 431
441 36 36 203 208 371 381 169 173 357 366 419 429 61 63 178 183 260 265
l149 150 -191 190 c-191 190 -870 880 -1161 1179 l-155 159 -1137 1 -1138 1
-149 -156 c-82 -87 -157 -166 -167 -178 -10 -12 -77 -83 -147 -158 -71 -75
-146 -155 -167 -177 -21 -23 -98 -104 -170 -180 -296 -313 -303 -320 -467
-496 -152 -163 -170 -183 -170 -195 0 -5 28 -39 61 -75 129 -138 297 -315 357
-379 35 -36 93 -97 129 -136 36 -38 143 -151 237 -249 94 -99 187 -196 206
-216 19 -21 73 -77 120 -126 47 -49 105 -110 128 -135 l42 -46 -23 -25 c-70
-77 -195 -215 -212 -234 -139 -150 -201 -214 -207 -212 -15 6 -679 675 -1039
1048 -39 41 -196 203 -349 360 -152 157 -292 301 -311 321 -19 20 -47 50 -62
66 l-28 30 42 49 c47 55 175 189 544 569 139 143 287 296 330 340 42 44 183
190 313 324 131 134 238 248 240 255 2 8 -100 11 -388 11 -214 0 -395 -2 -400
-3z m2031 -645 c47 -47 115 -119 454 -478 103 -109 317 -338 330 -353 6 -7 20
-23 33 -37 l22 -25 -47 -51 c-189 -202 -446 -469 -680 -706 l-166 -169 -246
250 c-309 314 -609 621 -638 653 l-23 25 57 59 c157 167 851 875 857 875 2 0
23 -20 47 -43z"/>
</g>
</svg>
